<mxfile host="app.diagrams.net" modified="2024-01-25T10:26:55.930Z" agent="Mozilla/5.0 (Windows NT 10.0; Win64; x64) AppleWebKit/537.36 (KHTML, like Gecko) Chrome/119.0.0.0 Safari/537.36" version="23.0.1" etag="5lEnUU_rKKPAiDiTFXQY" type="github">
  <diagram name="第 1 页" id="itTRvgC3juC_zr-g1Sdm">
    <mxGraphModel>
      <root>
        <mxCell id="0" />
        <mxCell id="1" parent="0" />
      </root>
    </mxGraphModel>
  </diagram>
</mxfile>
